# xmcd
#
# Track frame offsets: 
#        150
#        9286
#        29176
#        50819
#        68593
#        83214
#        102197
#        117724
#        134502
#        154767
#        171444
#        196020
#        211865
#        230392
#        249225
#
# Disc length: 3544 seconds
#
# Revision: 0
# Processed by: cddbd v1.5.2PL0 Copyright (c) Steve Scherf et al.
# Submitted via: ExactAudioCopyFreeDBPlugin 1.0
#
DISCID=cc0dd60f
DTITLE=Jay-Z - American Gangster
DYEAR=2008
DGENRE=Rap
TTITLE0=Intro
TTITLE1=Pray
TTITLE2=American Dreamin'
TTITLE3=Hello Brooklyn 2.0 Feat. Lil Wayne
TTITLE4=No Hook
TTITLE5=ROC Boys (And the Winner Is...)
TTITLE6=Sweet
TTITLE7=I Know
TTITLE8=Party Life
TTITLE9=Ignorant Shit Feat. Beanie Sigel
TTITLE10=Say Hello
TTITLE11=Success Feat. Nas
TTITLE12=Fallin'
TTITLE13=Blue Magic (Bonus Track)
TTITLE14=American Gangster (Bonus Track)
EXTD=
EXTT0=
EXTT1=
EXTT2=
EXTT3=
EXTT4=
EXTT5=
EXTT6=
EXTT7=
EXTT8=
EXTT9=
EXTT10=
EXTT11=
EXTT12=
EXTT13=
EXTT14=
PLAYORDER=
